<svg width="19" height="18" viewBox="0 0 19 18" fill="none" xmlns="http://www.w3.org/2000/svg">
<path d="M13.1205 0.000186704C11.8255 -0.0110662 10.5779 0.48675 9.64645 1.38641L9.63795 1.39475L8.22212 2.80234C7.89973 3.12286 7.89821 3.64405 8.21873 3.96645C8.53925 4.28885 9.06044 4.29037 9.38284 3.96984L10.7942 2.56667C11.4148 1.96937 12.2448 1.63895 13.1062 1.64643C13.9695 1.65393 14.7953 2.00022 15.4058 2.61069C16.0163 3.22117 16.3626 4.047 16.3701 4.91031C16.3776 5.77137 16.0474 6.60101 15.4506 7.22148L12.9865 9.6856C12.6527 10.0195 12.2509 10.2778 11.8085 10.4429C11.3661 10.6079 10.8935 10.6758 10.4225 10.6421C9.95158 10.6084 9.4934 10.4738 9.07907 10.2474C8.66473 10.021 8.30392 9.70818 8.02112 9.3301C7.74881 8.96606 7.23295 8.8917 6.86891 9.164C6.50487 9.43631 6.43051 9.95217 6.70281 10.3162C7.12702 10.8833 7.66823 11.3526 8.28974 11.6921C8.91124 12.0317 9.59851 12.2336 10.3049 12.2842C11.0113 12.3348 11.7203 12.2329 12.3839 11.9853C13.0475 11.7378 13.65 11.3505 14.1507 10.8496L16.6201 8.38026L16.6301 8.37005C17.5298 7.43856 18.0276 6.19098 18.0163 4.89601C18.0051 3.60104 17.4856 2.36229 16.5699 1.44658C15.6542 0.530861 14.4155 0.0114396 13.1205 0.000186704Z" fill="white"/>
<path d="M7.71159 5.71579C7.00518 5.6652 6.29616 5.76713 5.6326 6.01465C4.9691 6.26216 4.36658 6.64946 3.8659 7.15028L1.39644 9.61974L1.38641 9.62995C0.486749 10.5614 -0.0110662 11.809 0.000186704 13.104C0.0114396 14.399 0.530861 15.6377 1.44658 16.5534C2.36229 17.4691 3.60104 17.9886 4.89601 17.9998C6.19098 18.0111 7.43856 17.5133 8.37005 16.6136L8.38026 16.6036L9.78785 15.196C10.1093 14.8745 10.1093 14.3533 9.78785 14.0318C9.46639 13.7104 8.94519 13.7104 8.62373 14.0318L7.22147 15.4341C6.601 16.0309 5.77137 16.361 4.91031 16.3536C4.047 16.3461 3.22117 15.9998 2.61069 15.3893C2.00022 14.7788 1.65393 13.953 1.64643 13.0897C1.63895 12.2286 1.96908 11.399 2.5659 10.7785L5.03002 8.3144C5.36382 7.98048 5.76563 7.72215 6.208 7.55713C6.65036 7.39212 7.12305 7.32417 7.59399 7.3579C8.06492 7.39162 8.5231 7.52624 8.93744 7.75261C9.35178 7.97898 9.71259 8.29182 9.99539 8.66989C10.2677 9.03393 10.7836 9.1083 11.1476 8.836C11.5116 8.56369 11.586 8.04783 11.3137 7.68379C10.8895 7.11668 10.3483 6.64742 9.72677 6.30787C9.10526 5.96831 8.418 5.76639 7.71159 5.71579Z" fill="white"/>
</svg>
